# xmcd
#
# Track frame offsets: 
#        150
#        19142
#        37157
#        53840
#        68392
#        87832
#        104842
#        116992
#        134260
#        153252
#
# Disc length: 2336 seconds
#
# Revision: 1
# Processed by: cddbd v1.5.2PL0 Copyright (c) Steve Scherf et al.
# Submitted via: ExactAudioCopy v1.0b4
#
DISCID=86091e0a
DTITLE=TUBE - HEART OF SUMMER
DYEAR=1985
DGENRE=JPop
TTITLE0=セイリング・ラブ
TTITLE1=渚でキッス
TTITLE2=涙のハーバーライト
TTITLE3=ベストセラー・サマー
TTITLE4=ミッドナイト・ビーチ
TTITLE5=ピンナップ・サーファーガール
TTITLE6=ONJUKU-OUHARA-TAITOU 抜けて
TTITLE7=オールサマー・ロング
TTITLE8=デビル・ウーマン
TTITLE9=サンディー
EXTD=YEAR: 1985/7/1
EXTT0=
EXTT1=
EXTT2=
EXTT3=
EXTT4=
EXTT5=
EXTT6=
EXTT7=
EXTT8=
EXTT9=
PLAYORDER=
